/* XPM */
static char * supcoin32_xpm[] = {
"32 32 312 2",
"  	c None",
". 	c #DEDEDE",
"+ 	c #DDDEDE",
"@ 	c #E2E0DF",
"# 	c #F2E7E1",
"$ 	c #E6E2DF",
"% 	c #CDD5DB",
"& 	c #E4E2DF",
"* 	c #F3E8E1",
"= 	c #EDE5E0",
"- 	c #93BAD3",
"; 	c #4996C9",
"> 	c #0075BE",
", 	c #0067BB",
"' 	c #0069BB",
") 	c #0068BB",
"! 	c #0073BE",
"~ 	c #4695C8",
"{ 	c #90B8D2",
"] 	c #87B2D1",
"^ 	c #0274BE",
"/ 	c #006EBD",
"( 	c #5199C9",
"_ 	c #89B6D2",
": 	c #B6CBD8",
"< 	c #D1D8DC",
"[ 	c #B7CBD8",
"} 	c #8AB7D3",
"| 	c #549ACA",
"1 	c #006FBD",
"2 	c #81B0D0",
"3 	c #DDDDDE",
"4 	c #D9DCDD",
"5 	c #2384C3",
"6 	c #0070BD",
"7 	c #7AACCF",
"8 	c #E8E3DF",
"9 	c #E5E1DE",
"0 	c #E3E0DE",
"a 	c #E4E0DE",
"b 	c #EAE4E0",
"c 	c #7EAED0",
"d 	c #0071BE",
"e 	c #1F82C2",
"f 	c #D5DADD",
"g 	c #CFD7DC",
"h 	c #0076BF",
"i 	c #DADCDE",
"j 	c #DFDEDE",
"k 	c #85C4DF",
"l 	c #4AB5E0",
"m 	c #34AEE1",
"n 	c #35AFE1",
"o 	c #33AFE1",
"p 	c #56B8E0",
"q 	c #8EC8DF",
"r 	c #ECE2DE",
"s 	c #DCDDDE",
"t 	c #2886C4",
"u 	c #0075BF",
"v 	c #C9D4DB",
"w 	c #358DC6",
"x 	c #F5E7E0",
"y 	c #85C5DF",
"z 	c #009DE1",
"A 	c #04A2E1",
"B 	c #50B7E0",
"C 	c #49B4E0",
"D 	c #4BB4E0",
"E 	c #4DB6E0",
"F 	c #009EE1",
"G 	c #07A2E1",
"H 	c #B2D2DF",
"I 	c #3B8FC7",
"J 	c #D4DADD",
"K 	c #ECE5E0",
"L 	c #78C1DF",
"M 	c #009CE1",
"N 	c #58B8E0",
"O 	c #41B3E0",
"P 	c #009BE1",
"Q 	c #009DE2",
"R 	c #4FB6E0",
"S 	c #3FB3E0",
"T 	c #A8CFDF",
"U 	c #EBE5E0",
"V 	c #2887C4",
"W 	c #1C81C2",
"X 	c #C5D7DE",
"Y 	c #60BBE0",
"Z 	c #33B0E1",
"` 	c #4AA1D2",
" .	c #499ACC",
"..	c #4A9ACC",
"+.	c #46A4D4",
"@.	c #23AEE3",
"#.	c #0AA4E1",
"$.	c #43B3E0",
"%.	c #D9DCDE",
"&.	c #0072BE",
"*.	c #7DAED0",
"=.	c #7BADCF",
"-.	c #E0DEDE",
";.	c #53B7E0",
">.	c #2CAEE0",
",.	c #1AA7E1",
"'.	c #39B0E0",
").	c #1D7CBF",
"!.	c #368DC6",
"~.	c #378EC6",
"{.	c #348CC6",
"].	c #2B85C2",
"^.	c #2EAEE1",
"/.	c #29ACE0",
"(.	c #1FAAE1",
"_.	c #5BBAE0",
":.	c #82B0D0",
"<.	c #E9E4DF",
"[.	c #F3E4DE",
"}.	c #00A0E1",
"|.	c #5299C9",
"1.	c #157EC1",
"2.	c #E4E1DF",
"3.	c #E3E1DF",
"4.	c #E9E2DF",
"5.	c #EDE3DF",
"6.	c #EDE4DF",
"7.	c #DEDDDD",
"8.	c #0377BF",
"9.	c #509DCC",
"0.	c #00A2E1",
"a.	c #F1E3DE",
"b.	c #8DB7D2",
"c.	c #E0DFDE",
"d.	c #009AE1",
"e.	c #4BB3E0",
"f.	c #32B3E3",
"g.	c #0677BE",
"h.	c #8AB5D2",
"i.	c #3BB0E0",
"j.	c #27ACE1",
"k.	c #29ADE1",
"l.	c #3AB1E0",
"m.	c #56B2DC",
"n.	c #66A4CC",
"o.	c #10A7E2",
"p.	c #40AFE0",
"q.	c #19A8E1",
"r.	c #E9E1DE",
"s.	c #599CCA",
"t.	c #3F92C8",
"u.	c #E3E0DF",
"v.	c #4EB3E0",
"w.	c #38B5E3",
"x.	c #8CB7D2",
"y.	c #EAE1DE",
"z.	c #8DC8DF",
"A.	c #4CB3E0",
"B.	c #17A7E1",
"C.	c #7BC2DF",
"D.	c #F2E4DE",
"E.	c #93BBD3",
"F.	c #F5E9E1",
"G.	c #E5E2DF",
"H.	c #F6E5DE",
"I.	c #009EE2",
"J.	c #4E96C7",
"K.	c #1D83C3",
"L.	c #5FBBE0",
"M.	c #2BAEE0",
"N.	c #60BAE0",
"O.	c #62BCE0",
"P.	c #E2DFDE",
"Q.	c #BFD0DA",
"R.	c #DADCDD",
"S.	c #47B4E0",
"T.	c #3BB1E0",
"U.	c #0AA3E1",
"V.	c #45B1DE",
"W.	c #0676BE",
"X.	c #0B79C0",
"Y.	c #519BCA",
"Z.	c #4C99CA",
"`.	c #4998CA",
" +	c #4998CB",
".+	c #499FD0",
"++	c #3EB1E0",
"@+	c #65BDE0",
"#+	c #BCD5DE",
"$+	c #006ABB",
"%+	c #C4D2DB",
"&+	c #B7D4DE",
"*+	c #41B2DF",
"=+	c #499DCE",
"-+	c #4A97C8",
";+	c #4B97C8",
">+	c #4896C8",
",+	c #4795C8",
"'+	c #4494C8",
")+	c #3E93C7",
"!+	c #0576BF",
"~+	c #0E78BE",
"{+	c #3FB1DE",
"]+	c #10A4E1",
"^+	c #36B1E0",
"/+	c #4BB5E0",
"(+	c #E1DFDE",
"_+	c #D0D8DC",
":+	c #C4D1DB",
"<+	c #E3DFDE",
"[+	c #58BAE0",
"}+	c #009FE1",
"|+	c #5DBAE0",
"1+	c #21AAE1",
"2+	c #009CE2",
"3+	c #5AB9E1",
"4+	c #E5E1DF",
"5+	c #1A81C3",
"6+	c #4F97C8",
"7+	c #45B4E0",
"8+	c #C1D0DA",
"9+	c #EBE1DE",
"0+	c #FAE7DE",
"a+	c #76C2DF",
"b+	c #20AAE0",
"c+	c #4DB5E0",
"d+	c #87C5DF",
"e+	c #E7E1DE",
"f+	c #8BB7D2",
"g+	c #0375BE",
"h+	c #4DB3E0",
"i+	c #DCDEDE",
"j+	c #95BCD4",
"k+	c #24ACE1",
"l+	c #3FADE0",
"m+	c #11A6E2",
"n+	c #64A5CE",
"o+	c #54B3DD",
"p+	c #2FAEE1",
"q+	c #0FA6E1",
"r+	c #0EA6E1",
"s+	c #DADDDE",
"t+	c #37B5E3",
"u+	c #5B9DCA",
"v+	c #3D91C7",
"w+	c #EBE4E0",
"x+	c #F2E3DE",
"y+	c #4AB4E0",
"z+	c #519CCB",
"A+	c #0878BF",
"B+	c #F1E4DE",
"C+	c #F2E5DF",
"D+	c #EBE3DF",
"E+	c #1880C2",
"F+	c #5097C8",
"G+	c #45B3E0",
"H+	c #F5E5DE",
"I+	c #8CB5D2",
"J+	c #5AB9E0",
"K+	c #22ABE0",
"L+	c #24ABE0",
"M+	c #31AFE1",
"N+	c #2982C1",
"O+	c #0070BE",
"P+	c #3C91C7",
"Q+	c #3E93C8",
"R+	c #3E92C8",
"S+	c #0074BE",
"T+	c #1179BF",
"U+	c #3EB0DF",
"V+	c #12A5E1",
"W+	c #33B0E0",
"X+	c #86B2D1",
"Y+	c #0071BD",
"Z+	c #D6DBDE",
"`+	c #4CB6E0",
" @	c #01A2E1",
".@	c #28AEE2",
"+@	c #48A2D2",
"@@	c #4899CA",
"#@	c #4999CA",
"$@	c #4898CA",
"%@	c #4B9FD0",
"&@	c #3CB1E1",
"*@	c #65BCE0",
"=@	c #BED6DE",
"-@	c #DFDFDE",
";@	c #78ACCF",
">@	c #A1CDDF",
",@	c #67BDE0",
"'@	c #EFE6E0",
")@	c #2D89C5",
"!@	c #197FC2",
"~@	c #EEE6E0",
"{@	c #A9D0DF",
"]@	c #00A1E1",
"^@	c #4DB4E0",
"/@	c #4EB6E0",
"(@	c #11A5E1",
"_@	c #75C1DF",
":@	c #FAE9E0",
"<@	c #4093C7",
"[@	c #2987C4",
"}@	c #8BC6DF",
"|@	c #31AEE1",
"1@	c #3EB2E0",
"2@	c #74C0E0",
"3@	c #D8DCDE",
"4@	c #C2D1DA",
"5@	c #E5E0DE",
"6@	c #3F92C7",
"7@	c #DBDCDD",
"                                                                ",
"                          . . . . . .                           ",
"                    . + @ # $ % % & * @ + .                     ",
"                . . = - ; > , ' ' ) ! ~ { = . .                 ",
"              . = ] ^ / ( _ : < < [ } | 1 ! 2 = .               ",
"            3 4 5 6 7 8 9 0 a a a a 0 0 b c d e f 3             ",
"          3 g h 5 i j k l m n n n n o p q r s t u v 3           ",
"        . 4 h w x y z A B C D D D D C E F G H = I u J .         ",
"      . = 5 5 K L M N O P z Q Q Q Q z M R S M T U V W = .       ",
"      . ] 6 i X M Y F Z `  . . . . ...+.@.#.$.F %.. &.*..       ",
"    . = ^ =.-.;.>.,.'.).d !.~.~.~.~.{.1 ].^./.(._.j :.&.U .     ",
"    + - / <.[.}.C Q |.1.$ 2.2.3.4.5.6.7.8.9.M C 0.a.K 6 b.+     ",
"    @ ; ( c.0 d.e.f.g.h.3 . . + i.j.k.l.m.n.o.p.q.r.c.s.t.u.    ",
"  . # > _ + + d.v.w.^ x.3 . y.z.A.A.A.E B.Q C.D.r . + E.1 F..   ",
"  . G., : . H.F $.I.J.K.= 0 L.Q Q Q Q P M.N.z O.P.. . Q.' R..   ",
"  . % ' < . P.S.T.U.V.W.X.Y.Z.`.`.`. +.+++M @+P #+. . < $+%+.   ",
"  . % ' < . . &+P @+P *+=+-+;+>+,+'+)+!+~+{+]+^+/+(+. _+$+:+.   ",
"  . 2.) [ . . <+[+}+|+1+M 2+2+2+Q 3+4+K 5+6+I.7+F H.. 8+' 4 .   ",
"  . * ! } + . 9+0+a+M b+c+v.A.e.d+e+. 3 f+g+w.h+P i+. j+/ F..   ",
"    @ ~ | c.e+k+l+m+n+o+p+q+r+/.s+. . 3 f+g+t+h+P + c.u+v+3.    ",
"    + { 1 w+x+}.y+2+z+A+e+B+C+D+u.3.u.w+E+F+I.G+}+H+= &.I++     ",
"    . = ! c j J+K+L+M+N+O+P+Q+Q+Q+Q+R+S+T+U+V+W+c+(+X+Y+b .     ",
"      . 2 d i+Z+F `+ @.@+@@@#@#@#@#@$@%@&@z *@P =@-@! ;@.       ",
"      . = e t U >@P 7+/+P Q Q Q Q Q Q P W+|+z ,@'@)@!@K .       ",
"        . f u I ~@{@]@}+B ^@^@^@^@^@^@/@(@z _@:@<@! < .         ",
"          3 v u [@3 e+}@7+|@|@|@|@|@|@1@2@3@c.)@! 4@3           ",
"            3 J W &.:.U a a 5@5@5@5@a 5@= X+! !@< 3             ",
"              . = *.&.6 s.E.Q.< _+8+j+u+&.Y+;@K .               ",
"                . . U b.6@1 ' $+$+' / P+I+b . .                 ",
"                    . + u.F.7@%+:+4 F.2.+ .                     ",
"                          . . . . . .                           ",
"                                                                "};
