/* XPM */
static char * supcoin16_xpm[] = {
"16 16 129 2",
"  	c None",
". 	c #DEDFDE",
"+ 	c #84B4D2",
"@ 	c #629BCA",
"# 	c #619CCA",
"$ 	c #84B3D1",
"% 	c #DEDEDE",
"& 	c #EBE4E0",
"* 	c #589CCA",
"= 	c #4994C8",
"- 	c #B9CAD6",
"; 	c #EDE3DE",
"> 	c #B9CAD7",
", 	c #4A95C8",
"' 	c #549BCA",
") 	c #EAE4E0",
"! 	c #2185C4",
"~ 	c #BBCFDA",
"{ 	c #4FB5E0",
"] 	c #41B2E0",
"^ 	c #3AB0E1",
"/ 	c #43B3E0",
"( 	c #55B8E0",
"_ 	c #C6D2DA",
": 	c #2284C4",
"< 	c #C9D3DA",
"[ 	c #23A7E0",
"} 	c #38B2E2",
"| 	c #219CD8",
"1 	c #219BD8",
"2 	c #219DD9",
"3 	c #34B3E2",
"4 	c #28A9E0",
"5 	c #D0D5DA",
"6 	c #529ACA",
"7 	c #4794C8",
"8 	c #88C6E0",
"9 	c #1EA9E1",
"0 	c #2E8DC7",
"a 	c #83B2D1",
"b 	c #8CB7D2",
"c 	c #9CBBD2",
"d 	c #8EB3D0",
"e 	c #268CC8",
"f 	c #22AAE1",
"g 	c #88C7E0",
"h 	c #DCDEDE",
"i 	c #ACC6D7",
"j 	c #6ABAE0",
"k 	c #4DBBE4",
"l 	c #4291C5",
"m 	c #E0DFDE",
"n 	c #30ACE0",
"o 	c #39B0E0",
"p 	c #32A6DB",
"q 	c #7CC4E0",
"r 	c #B2D2DF",
"s 	c #B1C8D7",
"t 	c #83B1D1",
"u 	c #619BCA",
"v 	c #84C4DF",
"w 	c #1CA9E2",
"x 	c #2B8BC6",
"y 	c #96BAD3",
"z 	c #2F9ED6",
"A 	c #2099D6",
"B 	c #219AD8",
"C 	c #37B1E2",
"D 	c #1FA7E1",
"E 	c #E5E0DE",
"F 	c #E1E0DF",
"G 	c #5B9AC9",
"H 	c #DFDFDE",
"I 	c #E4E0DE",
"J 	c #1CA7E1",
"K 	c #33B0E2",
"L 	c #2098D5",
"M 	c #2B9CD5",
"N 	c #8FB7D2",
"O 	c #2B8CC6",
"P 	c #1DA9E2",
"Q 	c #85C5DF",
"R 	c #E0E0DF",
"S 	c #5B99C9",
"T 	c #ADC6D7",
"U 	c #B5D3DF",
"V 	c #7DC3E0",
"W 	c #35A7DB",
"X 	c #2EADE1",
"Y 	c #23A9E0",
"Z 	c #DBDDDE",
"` 	c #4191C5",
" .	c #4FBBE4",
"..	c #68BAE0",
"+.	c #B3C9D7",
"@.	c #82B1D1",
"#.	c #4894C8",
"$.	c #288BC7",
"%.	c #96B6D0",
"&.	c #A4BFD3",
"*.	c #8FB9D3",
"=.	c #87B4D2",
"-.	c #2C8BC7",
";.	c #87C6E0",
">.	c #4B96C9",
",.	c #DCDDDE",
"'.	c #CFD5DA",
").	c #29A9E0",
"!.	c #33B2E2",
"~.	c #209CD8",
"{.	c #209AD6",
"].	c #219AD7",
"^.	c #20A6E1",
"/.	c #CED6DA",
"(.	c #4F99C9",
"_.	c #C5D2DA",
":.	c #51B7E0",
"<.	c #40B2E0",
"[.	c #39AFE1",
"}.	c #3DB1E0",
"|.	c #4CB4E0",
"1.	c #BED1DB",
"2.	c #2083C3",
"3.	c #E9E3E0",
"4.	c #4C96C8",
"5.	c #BFCCD7",
"6.	c #F0E5DF",
"7.	c #C1CDD7",
"8.	c #4F97C9",
"                                ",
"          . + @ # $ %           ",
"      & * = - ; ; > , ' )       ",
"    & ! ~ { ] ^ ^ / ( _ : )     ",
"    * < [ } | 1 1 2 3 4 5 6     ",
"  . 7 8 9 0 a b c d e f g , h   ",
"  + i j k l m % n o p q r s t   ",
"  u . v w x y z A B C D E F G   ",
"  u H I J K A L M N O P Q R S   ",
"  $ T U V W X Y Z H `  ...+.@.  ",
"  % #.8 f $.%.&.*.=.-.P ;.>.,.  ",
"    ' '.).!.~.{.{.].} ^./.(.    ",
"    ) : _.:.<.[.[.}.|.1.2.3.    ",
"      ) 6 4.5.6.6.7.8.(.3.      ",
"          h t G S @.,.          ",
"                                "};
