/* XPM */
static char * supcoin64_xpm[] = {
"64 64 567 2",
"  	c None",
". 	c #DEDEDE",
"+ 	c #DDDEDE",
"@ 	c #E4E1DF",
"# 	c #F2E7E1",
"$ 	c #E5E2DF",
"% 	c #C0D0DA",
"& 	c #ACC4D6",
"* 	c #A3C1D5",
"= 	c #BED0DA",
"- 	c #E2E0DF",
"; 	c #F2E8E1",
"> 	c #E5E1DF",
", 	c #EFE6E0",
"' 	c #BDCED9",
") 	c #77ACCF",
"! 	c #398FC6",
"~ 	c #0176BF",
"{ 	c #006CBC",
"] 	c #0071BD",
"^ 	c #0073BE",
"/ 	c #0074BE",
"( 	c #0074BF",
"_ 	c #348DC6",
": 	c #73A9CE",
"< 	c #B7CCD9",
"[ 	c #F0E7E0",
"} 	c #DFDEDE",
"| 	c #E1DFDE",
"1 	c #D8DBDD",
"2 	c #6BA7CE",
"3 	c #0A79C0",
"4 	c #0071BE",
"5 	c #0076BF",
"6 	c #0075BF",
"7 	c #0077BF",
"8 	c #0072BE",
"9 	c #0776BF",
"0 	c #61A3CC",
"a 	c #D3D9DC",
"b 	c #E3E0DE",
"c 	c #DFDFDE",
"d 	c #D1D8DC",
"e 	c #4F99C9",
"f 	c #0070BD",
"g 	c #0878C0",
"h 	c #3E92C7",
"i 	c #76A9CE",
"j 	c #88B6D2",
"k 	c #ABC6D7",
"l 	c #ACC6D7",
"m 	c #8BB8D3",
"n 	c #4294C8",
"o 	c #0B7AC1",
"p 	c #006FBD",
"q 	c #006DBC",
"r 	c #4695C9",
"s 	c #C8D4DB",
"t 	c #E7E2DF",
"u 	c #62A3CC",
"v 	c #006DBD",
"w 	c #1480C2",
"x 	c #80AFD0",
"y 	c #C9D4DB",
"z 	c #E3E1DF",
"A 	c #E3E0DF",
"B 	c #EEE6E0",
"C 	c #CED6DC",
"D 	c #85B1D1",
"E 	c #1D83C3",
"F 	c #006EBC",
"G 	c #549DCB",
"H 	c #E0DFDE",
"I 	c #BACDD9",
"J 	c #0978C0",
"K 	c #3D91C7",
"L 	c #B5CBD8",
"M 	c #ECE5E0",
"N 	c #BECFDA",
"O 	c #4795C8",
"P 	c #0375BF",
"Q 	c #AFC8D7",
"R 	c #EAE4E0",
"S 	c #7EAFD0",
"T 	c #1A81C3",
"U 	c #BACED9",
"V 	c #E6E1DF",
"W 	c #C2D1DA",
"X 	c #2585C4",
"Y 	c #6CA7CE",
"Z 	c #EDE5E0",
"` 	c #4898C9",
" .	c #006EBD",
"..	c #79ADD0",
"+.	c #F0E7E1",
"@.	c #E4E0DE",
"#.	c #F0E3DE",
"$.	c #ACD0DF",
"%.	c #90C9DF",
"&.	c #76BFE0",
"*.	c #77C1E0",
"=.	c #A0CDDF",
"-.	c #C5D7DE",
";.	c #EFE3DE",
">.	c #EFE7E1",
",.	c #83B2D1",
"'.	c #3E93C8",
").	c #4194C8",
"!.	c #93CADF",
"~.	c #37B1E0",
"{.	c #009BE1",
"].	c #00A0E1",
"^.	c #00A1E1",
"/.	c #00A2E1",
"(.	c #009FE1",
"_.	c #08A3E1",
":.	c #5EBBE0",
"<.	c #D7DCDE",
"[.	c #0177BF",
"}.	c #308CC6",
"|.	c #EAE3E0",
"1.	c #147BC1",
"2.	c #D7DBDD",
"3.	c #DDDDDE",
"4.	c #B4D3DF",
"5.	c #0EA5E1",
"6.	c #009DE1",
"7.	c #5DBBE0",
"8.	c #E6E0DE",
"9.	c #1B7FC2",
"0.	c #3D92C8",
"a.	c #EAE1DE",
"b.	c #6EBFDF",
"c.	c #009EE1",
"d.	c #8DC7DF",
"e.	c #84C5DF",
"f.	c #82C4DF",
"g.	c #83C5DF",
"h.	c #85C5DF",
"i.	c #81C4E0",
"j.	c #88C7DF",
"k.	c #78C1E0",
"l.	c #0CA4E1",
"m.	c #CAD9DE",
"n.	c #E2E0DE",
"o.	c #1C7FC2",
"p.	c #67A6CE",
"q.	c #E7E0DE",
"r.	c #52B8E0",
"s.	c #99CBDF",
"t.	c #47B4E0",
"u.	c #04A2E1",
"v.	c #77C2E0",
"w.	c #93C9DF",
"x.	c #0BA4E1",
"y.	c #C1D6DE",
"z.	c #0B79C0",
"A.	c #AAC6D7",
"B.	c #C1D0DA",
"C.	c #DCDDDE",
"D.	c #93C8DF",
"E.	c #9FCCDF",
"F.	c #35AFE0",
"G.	c #83C5E0",
"H.	c #4FB7E0",
"I.	c #D2DBDE",
"J.	c #CAD5DB",
"K.	c #D8DCDE",
"L.	c #A7D0DF",
"M.	c #02A2E1",
"N.	c #01A2E1",
"O.	c #27ADE1",
"P.	c #8ECBE3",
"Q.	c #84C3DE",
"R.	c #82C0DB",
"S.	c #82BFDB",
"T.	c #85C7E0",
"U.	c #74C3E2",
"V.	c #48B5E0",
"W.	c #57B9E0",
"X.	c #19A8E1",
"Y.	c #EBE2DE",
"Z.	c #89B4D2",
"`.	c #4C99C9",
" +	c #4DB6E0",
".+	c #11A5E1",
"++	c #1FAAE1",
"@+	c #9CC6DA",
"#+	c #569AC9",
"$+	c #75A8CC",
"%+	c #8FC8E0",
"&+	c #55B9E0",
"*+	c #40B2E0",
"=+	c #7EC3DF",
"-+	c #2C89C5",
";+	c #BBCED9",
">+	c #DBDEDE",
",+	c #14A7E1",
"'+	c #71C0E0",
")+	c #35B2E2",
"!+	c #83B0CF",
"~+	c #A9C7D8",
"{+	c #07A3E1",
"]+	c #9ACBDF",
"^+	c #3B90C7",
"/+	c #3E91C7",
"(+	c #E6E2DF",
"_+	c #7FC3E0",
":+	c #92C9DF",
"<+	c #94B7D2",
"[+	c #1C83C3",
"}+	c #6BA4CD",
"|+	c #7BACCF",
"1+	c #7DACCF",
"2+	c #60A0CB",
"3+	c #0778C0",
"4+	c #AACADA",
"5+	c #03A1E1",
"6+	c #82C5E0",
"7+	c #91C9DF",
"8+	c #5099CA",
"9+	c #34B0E0",
"0+	c #8EC7DF",
"a+	c #90C8DF",
"b+	c #99BDD4",
"c+	c #EEE5E0",
"d+	c #5DA2CC",
"e+	c #0D7AC0",
"f+	c #79C5E2",
"g+	c #8CC7DF",
"h+	c #44B4E0",
"i+	c #E2DFDE",
"j+	c #5B9ECB",
"k+	c #147FC2",
"l+	c #F4E4DE",
"m+	c #40B3E0",
"n+	c #36B0E0",
"o+	c #8AB0CF",
"p+	c #82B1D1",
"q+	c #E0DEDE",
"r+	c #E8E3DF",
"s+	c #4B9ACA",
"t+	c #90B9D3",
"u+	c #009CE1",
"v+	c #4CB5E0",
"w+	c #2CAEE0",
"x+	c #F2E3DE",
"y+	c #2C8AC5",
"z+	c #F1E8E1",
"A+	c #E3DFDE",
"B+	c #80C2E0",
"C+	c #3AB3E1",
"D+	c #69BCE0",
"E+	c #5FBAE0",
"F+	c #68BDE0",
"G+	c #79C1E0",
"H+	c #8FC9DF",
"I+	c #BED4DD",
"J+	c #69A0CA",
"K+	c #4B97C8",
"L+	c #2AAEE1",
"M+	c #09A5E1",
"N+	c #6FBEE0",
"O+	c #0EA6E1",
"P+	c #ECE2DE",
"Q+	c #8CB5D2",
"R+	c #A8C5D7",
"S+	c #BBD5DF",
"T+	c #89C7DF",
"U+	c #77C4E2",
"V+	c #3990C7",
"W+	c #AFD1DF",
"X+	c #85C8E1",
"Y+	c #9CBDD3",
"Z+	c #49B5E1",
"`+	c #0095E1",
" @	c #8AC6DF",
".@	c #B9D4DF",
"+@	c #DADDDE",
"@@	c #6AA4CD",
"#@	c #388FC6",
"$@	c #B6D4DF",
"%@	c #7EC6E2",
"&@	c #3B91C7",
"*@	c #31ADE1",
"=@	c #94C9DF",
"-@	c #E5E0DE",
";@	c #D8DDDE",
">@	c #DCDEDE",
",@	c #EEE3DE",
"'@	c #EBE4E0",
")@	c #1982C2",
"!@	c #2888C4",
"~@	c #89C5DF",
"{@	c #44B6E1",
"]@	c #2F8AC5",
"^@	c #0476BF",
"/@	c #F5E9E1",
"(@	c #84C6DF",
"_@	c #87C7DF",
":@	c #85C6DF",
"<@	c #69BDE0",
"[@	c #43B3E0",
"}@	c #EBE1DE",
"|@	c #579DCB",
"1@	c #F3E8E1",
"2@	c #E4E2DF",
"3@	c #F7E5DE",
"4@	c #4CB6E0",
"5@	c #29ADE1",
"6@	c #07A2E1",
"7@	c #76A8CC",
"8@	c #A1C2D5",
"9@	c #1CA9E1",
"0@	c #11A7E1",
"a@	c #90C7DF",
"b@	c #7DC3DF",
"c@	c #3AB1E0",
"d@	c #28ADE1",
"e@	c #7FC3DF",
"f@	c #95C7DC",
"g@	c #CDD6DC",
"h@	c #9ECCDF",
"i@	c #14A6E1",
"j@	c #ADD1DF",
"k@	c #6FBFE0",
"l@	c #A5C4D6",
"m@	c #AEC6D7",
"n@	c #69BEE0",
"o@	c #22ABE1",
"p@	c #69A3CB",
"q@	c #60A1CC",
"r@	c #97BDD4",
"s@	c #B3C9D8",
"t@	c #9EC3D8",
"u@	c #82BAD8",
"v@	c #81BCD9",
"w@	c #8AC7DF",
"x@	c #5EBDE2",
"y@	c #ACD1DF",
"z@	c #C6D8DE",
"A@	c #ADC6D7",
"B@	c #9DBFD5",
"C@	c #C7D8DE",
"D@	c #3DB1E0",
"E@	c #65C0E2",
"F@	c #4190C6",
"G@	c #1F84C3",
"H@	c #9ABDD5",
"I@	c #3FB4E2",
"J@	c #3AB0E0",
"K@	c #ADC7D7",
"L@	c #94BBD4",
"M@	c #E8E1DE",
"N@	c #30AEE0",
"O@	c #A0CEDF",
"P@	c #55BCE2",
"Q@	c #8DB4D1",
"R@	c #0778BF",
"S@	c #0075BE",
"T@	c #579BC9",
"U@	c #53BBE2",
"V@	c #56B8E0",
"W@	c #2FAEE1",
"X@	c #CFDADE",
"Y@	c #BFD6DE",
"Z@	c #A6CFDF",
"`@	c #77C5E3",
" #	c #86C0DA",
".#	c #83B7D5",
"+#	c #85B6D3",
"@#	c #84B6D3",
"##	c #7EB3D2",
"$#	c #7FB3D2",
"%#	c #84B4D2",
"&#	c #89B6D2",
"*#	c #7EB1D0",
"=#	c #4A97C9",
"-#	c #77AACD",
";#	c #18A8E1",
">#	c #9CBED5",
",#	c #BDCFD9",
"'#	c #0DA4E1",
")#	c #AAD0DF",
"!#	c #03A2E1",
"~#	c #C1D1DA",
"{#	c #95C7DD",
"]#	c #2AADE1",
"^#	c #A7C4D6",
"/#	c #2AADE0",
"(#	c #87C6DF",
"_#	c #7FC4E0",
":#	c #05A1E1",
"<#	c #18A6E1",
"[#	c #E9E1DE",
"}#	c #96BBD4",
"|#	c #78AACC",
"1#	c #2BADE1",
"2#	c #4BB6E0",
"3#	c #7AADCF",
"4#	c #CFD7DC",
"5#	c #E6E1DE",
"6#	c #31AFE0",
"7#	c #79C2DF",
"8#	c #8EC6DF",
"9#	c #87C4DF",
"0#	c #82C2DF",
"a#	c #81C3DF",
"b#	c #F5E9E2",
"c#	c #308BC5",
"d#	c #43B5E1",
"e#	c #D6DCDE",
"f#	c #5C9FCB",
"g#	c #0B7BC1",
"h#	c #EEE2DE",
"i#	c #EDE3DE",
"j#	c #FAE7DE",
"k#	c #2CAEE1",
"l#	c #3C92C7",
"m#	c #7FC7E2",
"n#	c #B3D3DF",
"o#	c #E9E3E0",
"p#	c #1E84C3",
"q#	c #2486C4",
"r#	c #C3D7DE",
"s#	c #0DA6E1",
"t#	c #8AC5DF",
"u#	c #0093E1",
"v#	c #4AB4E1",
"w#	c #A6C3D6",
"x#	c #70C4E3",
"y#	c #9DCCDF",
"z#	c #3B92C7",
"A#	c #7FC6E2",
"B#	c #E0E0DE",
"C#	c #006BBC",
"D#	c #67A2CC",
"E#	c #B7CCD8",
"F#	c #1BA9E1",
"G#	c #70BEE0",
"H#	c #09A4E1",
"I#	c #2DAFE1",
"J#	c #4694C7",
"K#	c #80ACCD",
"L#	c #ADD0DE",
"M#	c #64BBE0",
"N#	c #39B1E1",
"O#	c #33B0E1",
"P#	c #3DB2E0",
"Q#	c #A2CEDF",
"R#	c #318CC5",
"S#	c #41B4E1",
"T#	c #8EB7D2",
"U#	c #A3C2D6",
"V#	c #30AFE0",
"W#	c #90B8D2",
"X#	c #5FA2CC",
"Y#	c #E4DFDE",
"Z#	c #8FB7D2",
"`#	c #7CABCD",
" $	c #01A1E1",
".$	c #2DAEE0",
"+$	c #47B5E0",
"@$	c #F6E5DE",
"#$	c #368FC6",
"$$	c #F1E7E1",
"%$	c #3FB2E0",
"&$	c #8FC7DF",
"*$	c #83C7E1",
"=$	c #0676BF",
"-$	c #7CAED0",
";$	c #B6CBD8",
">$	c #95C8DE",
",$	c #86C5DF",
"'$	c #D0D7DC",
")$	c #579BCA",
"!$	c #A8C7D8",
"~$	c #157FC2",
"{$	c #74AACF",
"]$	c #86B5D2",
"^$	c #7FAFD0",
"/$	c #7FAECF",
"($	c #15A7E1",
"_$	c #73C0E0",
":$	c #579ECB",
"<$	c #4695C8",
"[$	c #E7E1DE",
"}$	c #8CC6DF",
"|$	c #A5C3D6",
"1$	c #61A0CA",
"2$	c #4CB8E2",
"3$	c #27ACE1",
"4$	c #D3DBDE",
"5$	c #318BC5",
"6$	c #74C0E0",
"7$	c #4EB7E0",
"8$	c #3EB3E0",
"9$	c #9CCADE",
"0$	c #64A0CA",
"a$	c #2B89C4",
"b$	c #A1C4D6",
"c$	c #35B0E2",
"d$	c #95C9DF",
"e$	c #368EC6",
"f$	c #559DCB",
"g$	c #12A6E1",
"h$	c #2EAEE1",
"i$	c #15A8E1",
"j$	c #8BCBE3",
"k$	c #82BDD9",
"l$	c #80BBD8",
"m$	c #81BBD8",
"n$	c #80BBD7",
"o$	c #8ECAE1",
"p$	c #53B9E1",
"q$	c #B3D2DF",
"r$	c #CBD9DE",
"s$	c #95BBD3",
"t$	c #64BDE0",
"u$	c #72C0DF",
"v$	c #1BA8E1",
"w$	c #A9D0DF",
"x$	c #9BCCDF",
"y$	c #63BBE0",
"z$	c #25ACE0",
"A$	c #92C8DF",
"B$	c #177DC1",
"C$	c #9EC0D5",
"D$	c #BCD5DF",
"E$	c #89C6DF",
"F$	c #84C5E0",
"G$	c #8AC8DF",
"H$	c #89C7E0",
"I$	c #83C4DF",
"J$	c #8DC8DF",
"K$	c #59B9E0",
"L$	c #50B7E0",
"M$	c #2184C3",
"N$	c #569ECB",
"O$	c #3E92C8",
"P$	c #E2E1DF",
"Q$	c #C0D6DE",
"R$	c #52B7E0",
"S$	c #12A7E1",
"T$	c #84C4DF",
"U$	c #CED7DC",
"V$	c #2083C3",
"W$	c #88B4D2",
"X$	c #F3E4DE",
"Y$	c #AED1DE",
"Z$	c #80C3DF",
"`$	c #72BFE0",
" %	c #71BEE0",
".%	c #74BFE0",
"+%	c #D4DBDE",
"@%	c #2D8BC5",
"#%	c #9DC0D5",
"$%	c #8DB7D2",
"%%	c #1E85C3",
"&%	c #5A9DCB",
"*%	c #569BCA",
"=%	c #A8C4D6",
"-%	c #2888C5",
";%	c #67A2CD",
">%	c #A2C2D6",
",%	c #D2D9DC",
"'%	c #AFC6D7",
"                                                                                                                                ",
"                                                                                                                                ",
"                                                            . . . .                                                             ",
"                                                . . . . . . . . . . . . . . . .                                                 ",
"                                          . . . . . . . . . . . . . . . . . . . . . .                                           ",
"                                      . . . . . . + @ # $ % & * * & = - ; > + . . . . . .                                       ",
"                                  . . . . . . , ' ) ! ~ { ] ^ / / ^ ] { ( _ : < [ } . . . . .                                   ",
"                                . . . . | 1 2 3 4 5 5 5 5 6 ^ ^ ^ ^ 6 7 5 5 5 8 9 0 a b . . . .                                 ",
"                            . . . . c d e { 5 5 5 f g h i j k l l l m i n o p 5 5 5 q r s | . . . .                             ",
"                          . . . + t u v 5 5 4 w x y , z + + . . . . + + A B C D E f 5 5 F G @ + . . .                           ",
"                        . . . H I J 5 5 p K L B + . . . . . . . . . . . . . . + M N O p 5 5 P Q | . . .                         ",
"                      . . . R S p 5 6 T U V . . . . + + + + + + + + + + + + . . . . A W X 6 5 p Y M . . .                       ",
"                    . . . Z ` / 5  ...+.+ + @.#.$.%.&.&.&.&.&.&.&.&.&.&.&.*.=.-.;.} . . >.,.f 5 6 '.R . . .                     ",
"                  . . . Z ).6 5 6 % } + #.!.~.{.].^././././././././././././.^.(._.:.<.} . . y J [.5 }.|.. . .                   ",
"                . . . R ` 6 [.1.2.3.| 4.5.^./././.^.(.(.(.(.(.(.(.(.(.(.(.].^./././.6.7.8.+ 3.} 9.[.5 0.M . . .                 ",
"                . . H S / 5 1.+ + a.b.c././.6.~.d.e.f.g.h.h.h.h.h.h.h.h.g.i.j.k._.^././.l.m.+ . n.o.[.6 p.n.. .                 ",
"              . . + I p 5 6 1 + q.:.^./.(.r.s.t.6.(.].^.^.^.^.^.^.^.^.^.^.].c.u.v.w.x././.(.y.+ . H z.5 p A.+ . .               ",
"            . . . t J 5  .B.C.+ D.]./.(.E.F.]./././.^.^.^.^.^.^.^.^.^.^.^././././.c.G.H.^./.].I.. + J.] 5 6 - . . .             ",
"            . . c u 5 6 ..} . K.c./.c.L.M.N./.c.O.P.Q.R.R.R.R.R.R.R.R.R.S.T.U.l././.^.V.W.^./.X.Y.. . Z./ ~ `.A . .             ",
"          . . . d v 5 T +.. |  +/./.G..+/./.++@+#+{ p ] ] ] ] ] ] ] ] ] ] q g $+%+]././.&+*+N./.=+. . B -+5  .% . . .           ",
"          . . | e 5 p ;++ . >+6./.,+'+/.N.)+!+ .5 5 5 5 5 5 5 5 5 5 5 5 5 5 5 5 ^ ~+{+/.].]+]./.^.a.. . y p 5 ^+> . .           ",
"        . . . 1 q 5 /+(+. + _+/.^.:+6./._.<+8 5 ^ [+}+|+|+|+|+|+|+|+|+|+1+2+3+5 5 f 4+c./.5+6+/.^.7++ . n.8+5  .J.. . .         ",
"        . . . 2 5 4 L . . @.9+/.6.0+/./.a+p 5 f b+B . 3.3.3.3.3.3.3.3.3.C.H c+d+^ 5 e+f+/./.g+6./.h+i+. . s  .5 j+H . .         ",
"        . . , 3 5 k+B . . l+c./.m+n+/.c.o+5 6 p+} . . . . . . . . . q+q+H } + r+s+5 6 t+u+/.v+w+/.].x+. . r+y+5 ^ z+. .         ",
"      . . . ' 4 5 x + . . A+6./.B+]./.C+! 5 f +.. . . . . . . } 4.D+E+E+E+F+G+H+I+J+/ K+L+/.M+N+/.O+P+. . + Q+6 ^ R+. . .       ",
"      . . + ) 5 f y . . . S+(./.T+{./.U+5 5 V+@ . . . . . . + W+6././././././.^.c.O+X+Y+Z+c.`+ @]..@+ . . . +@{ 7 @@. . .       ",
"      . . @ #@5 g , . . . $@]./.T+{./.%@^ 5 &@z . . . . . . b *@u+u+u+u+u+u+(.^./././.].=@-@;@>@,@+ . . . . '@)@5 !@t . .       ",
"      . . # ~ 5 h z . . . <.6./.~@6./.{@]@5 ^@/@. . . . . Y.:+(@j.j.j.j.j._@:@T+<@(././.].[@}@. . . . . . . | |@5 q 1@. .       ",
"      . . 2@{ 5 i + . . . 3@u+/.4@5@/.6@7@5 ^ 8@C.. . . ,@9@^./././././././.^.6.0@a@b@c././.c@P+. . . . . . + ) 5 p d . .       ",
"      . . % ] 6 j + . . . q.d@/.].e@/.].f@q 5 6 g@} . . h@(.].].].].].].].].^./././.i@j@]./.^.k@q+. . . . . . l@^ ^ m@. .       ",
"    . . . & ^ ^ k . . . . . n@/.].%.6./.o@p@5 5 f q@r@s@t@u@u@u@u@u@u@u@u@v@w@x@c././.(.y@]./.c.z@. . . . . . A@^ / B@. . .     ",
"    . . . * / ^ l . . . . . C@c./.D@t././.E@F@6 5 5 / ^ ^ ^ ^ ^ ^ ^ ^ ^ ^ 8 q G@H@I@/./.^.]+]./.J@8.. . . . . K@^ / L@. . .     ",
"    . . . * / ^ l . . . . . M@N@/.(.O@]./.^.P@Q@R@] / S@S@S@6 6 6 6 6 6 6 5 5 5 8 T@U@/.N.V@W@/.6.X@. . . . . K@^ / L@. . .     ",
"    . . . & ^ ^ l . . . . . + Y@6./.].Z@c././.^.`@ #.#+#+#+#@###$#$#$#%#&#*#=# .5 6 -#;#/.6.%.^./.k@. . . . . l ^ / >#. . .     ",
"      . . ,#4 6 m + . . . . . | :././.'#)#!#/././.].c.c.c.c.c.c.c.c.6.:++ + A ~#( 5  .{#^./.e.(./.]#q.. . . . ^#^ ^ A@. .       ",
"      . . - { 7 i + . . . . . . Y./#/./.].(#_#:#].^././././././././.<#[#. . . 3.}#( 5 |#u./.1#2#/.u+3@. . . + 3#5 p 4#. .       ",
"      . . ; ( 5 n A . . . . . . . 5#6#^././.{+7#(#j.8#9#9#9#9#9#0#a#H . . . . . b#/ 5 c#d#/.6.~@/.c.e#. . . H f#5 { 1@. .       ",
"      . . > _ 5 g#B . . . . + h#@.i#j#h.c.N././.].6.u+(.c.c.c.c.k#@.. . . . . . z l#5 ^ m#/.u+_@/.].n#. . . o#p#5 q#t . .       ",
"      . . + : 5 p C . . . + r#s#t#u#{.v#w#x#].]./././././././.c.y#+ . . . . . . z z#5 ^ A#/.u+_@/.].4.. . . B#C#7 D#} . .       ",
"      . . . E#8 5 D + . . [#F#/.G#H#/.I#J#z.K#L#k.M#N#O#O#O#P#Q#A+. . . . . . . /@^ 5 R#S#/.6.9#/.c.K.. . + T#6 / U#. . .       ",
"        . . [ 9 5 E M . . x+(./.V#t./.u+W#6 5 X#- } @.-@-@-@Y#+ . . . . . . . + Z#6 5 `# $/..$+$/.u+@$. . (+#$5 4 $$. .         ",
"        . . } u 5 f N . . A+%$/.6.&$/./.*$=$5 f -$$$+ + + + + + + + + + + 3.(+;$/ 5 q >$^./.,$c./.k#8.. . '$v 7 )$H . .         ",
"        . . . a q 5 O A . + &$/./.(#^./.(.!$p 5 6 ~${$]$]$]$]$]$]$]$]$]$]$^$V+f 5 6 /$($/.u+%.^./._$. . H :$5 p W . . .         ",
"          . . A <$5 p W . . [$(./.^.}$^./.i@|$] 5 5 5 6 6 6 6 6 6 6 6 6 6 5 5 5 4 1$2$/.N.7.3$/.6.4$. . d  .5 5$r+. .           ",
"          . . . s F 5 X >.. . 6$/./.7$8$N.N.^.9$0$q 8 ^ ^ ^ ^ ^ ^ ^ ^ ^ ^ ^ C#a$b$c$/./.^.d$^./.*+@.. R e$5 f < . . .           ",
"            . . | f$5 6 ,.. . a.g$/.^.v.h$/./.].i$j$k$l$m$m$m$m$m$m$m$m$m$n$o$p$u+/./.].q$]./.c.r$. + s$^ ~ n > . .             ",
"            . . . @ P 5 f y 3.+ C@(./.].t$u$6./././.].].].].].].].].].].].]./././.^.v$w$]./.^.7#} + 4#^ 5 ^ + . . .             ",
"              . . 3.Q p 5 J c . + 4.c././.X.x$y$c.].^././././././././././.^.].u+z$A$'+c././.%$P+. z B$5 f C$+ . .               ",
"                . . | Y 6 [.9.n.. + D$/.N./.(.F#E$F$(#G$T+T+T+T+T+T+T+T+T+H$I$J$K$c././.].L$P+. t M$[.5 N$> . .                 ",
"                . . . M O$5 [.o.H + + c h+c./././.].c.6.6.6.6.6.6.6.6.6.6.6.].^./././.N.s.q.. P$M$~ ~ y+Z . . .                 ",
"                  . . . R }.5 [.z.J.. . @.Q$R$c.]././././././././././././././.^.c.S$T$q.. + U$B$[.~ V$$ . . .                   ",
"                    . . . |.0.6 5 ] W$B . . | X$Y$Z$`$N+N+N+N+N+N+N+N+N+N+ %.%=.+%P++ . R s$^ 5 5 @%$ . . .                     ",
"                      . . . M p.p 5 / -+y n.. . . + . . . . . . . . . . . . + . . . H d e$^ 5 f N$M . . .                       ",
"                        . . . n.k 6 ~ 5  .8+s r++ . . . . . . . . . . . . . . + (+'$:$ .5 ~ ^ #%> . . .                         ",
"                          . . . + - `.p 5 5  .y+Q++@'@| + . . . . . . + H o#B#$%e$v 5 5 f n + + . . .                           ",
"                            . . . . A % ^+ .5 5 6 { )@|@) l@K@K@K@l ^#3#f#%%C#6 5 7 p c#< > . . . .                             ",
"                                . . . . > J.&%^ ^ 7 5 5 5 ^ ^ ^ ^ ^ ^ 5 5 5 7 / 8 *%W r+. . . .                                 ",
"                                  . . . . . H z+=%@@-%q p ^ / / / / ^ p { q#;%>%$$H . . . . .                                   ",
"                                      . . . . . . . t 1@,%'%B@L@L@>#A@4#1@t } . . . . . .                                       ",
"                                          . . . . . . . . . . . . . . . . . . . . . .                                           ",
"                                                . . . . . . . . . . . . . . . .                                                 ",
"                                                            . . . .                                                             ",
"                                                                                                                                ",
"                                                                                                                                "};
